<?xml version="1.0" encoding="utf-8"?>
<!-- Generator: Adobe Illustrator 23.0.1, SVG Export Plug-In . SVG Version: 6.00 Build 0)  -->
<svg version="1.1" id="Layer_1" xmlns="http://www.w3.org/2000/svg" xmlns:xlink="http://www.w3.org/1999/xlink" x="0px" y="0px"
	 viewBox="0 0 1383.04 386.48" style="enable-background:new 0 0 1383.04 386.48;" xml:space="preserve">
<style type="text/css">
	.st0{fill:#D09DC6;}
	.st1{opacity:0.5;fill:#FFFFFF;}
</style>
<g>
	<polygon class="st0" points="822.62,332.53 764.3,332.53 787.02,215.73 822.62,215.73 	"/>
	<g>
		<rect y="337.08" class="st0" width="1383.04" height="49.4"/>
		<polygon class="st0" points="774.82,116.39 774.82,64.63 756.09,64.63 756.09,44.93 746.07,44.93 746.07,28.38 742.56,28.38 
			742.56,0 741.65,0 741.65,28.38 738.13,28.38 738.13,44.93 728.11,44.93 728.11,64.63 709.53,64.63 709.53,116.39 705.66,116.39 
			705.66,210.36 676.85,210.36 676.85,317.48 705.66,317.48 734.48,317.48 778.54,317.48 778.54,116.39 		"/>
		<polygon class="st0" points="882.46,175.85 791.81,175.85 791.81,177.49 795.91,177.49 795.91,330.78 878.36,330.78 
			878.36,177.49 882.46,177.49 		"/>
		<rect x="388.71" y="214.03" class="st0" width="80.37" height="127.69"/>
		<rect x="238.37" y="279.45" class="st0" width="138.23" height="62.27"/>
		<rect x="312.47" y="140.33" class="st0" width="30.35" height="152.91"/>
		<rect x="319.17" y="99.54" class="st0" width="1.58" height="83.16"/>
		<rect x="324.29" y="105.85" class="st0" width="1.58" height="83.16"/>
		<rect x="314.81" y="130.87" class="st0" width="18.55" height="20.49"/>
		<rect x="371.19" y="236.88" class="st0" width="52.81" height="104.83"/>
		<rect x="482.11" y="125.95" class="st0" width="99.13" height="215.77"/>
		<rect x="491.85" y="118.53" class="st0" width="79.65" height="35.94"/>
		<rect x="474.43" y="130.46" class="st0" width="114.5" height="2.52"/>
		<rect x="464.15" y="232.75" class="st0" width="46.71" height="108.97"/>
		<rect x="129.6" y="228.61" class="st0" width="53.6" height="113.11"/>
		<g>
			<rect x="146.94" y="197.87" class="st0" width="106.8" height="143.85"/>
			<rect x="140.71" y="192.35" class="st0" width="115.79" height="5.52"/>
			<rect x="151.67" y="177.37" class="st0" width="46.94" height="29.16"/>
			<rect x="213.94" y="177.37" class="st0" width="7.88" height="17.73"/>
			<rect x="229.7" y="177.37" class="st0" width="8.67" height="17.73"/>
		</g>
		<rect x="100.44" y="297.97" class="st0" width="55.96" height="43.75"/>
		<rect x="79.3" y="279.45" class="st0" width="26.5" height="62.27"/>
		<rect x="47.26" y="319.84" class="st0" width="45.29" height="21.87"/>
		<rect x="571.5" y="293.24" class="st0" width="558.07" height="48.47"/>
		<path class="st0" d="M1085.01,159.06c-3.51,0-6.39,2.7-6.68,6.14l-7.85-0.26c0.02-0.77,0.03-1.54,0.03-2.31
			c0-9.78-1.69-19.29-4.92-28.22l6.56-2.42c1.03,2.38,3.4,4.04,6.16,4.04c3.7,0,6.71-3,6.71-6.71c0-3.7-3-6.71-6.71-6.71
			s-6.71,3-6.71,6.71c0,0.68,0.1,1.34,0.29,1.96l-6.56,2.42c-3.74-10.03-9.44-19.29-16.9-27.32l5.13-4.81
			c1.2,1.15,2.83,1.86,4.63,1.86c3.7,0,6.71-3,6.71-6.71s-3-6.71-6.71-6.71s-6.71,3-6.71,6.71c0,1.64,0.59,3.14,1.57,4.31
			l-5.13,4.81c-0.53-0.56-1.07-1.11-1.61-1.66c-7.77-7.77-16.82-13.81-26.68-17.91l2.82-6.88c0.64,0.2,1.32,0.31,2.03,0.31
			c3.7,0,6.71-3,6.71-6.71c0-3.7-3-6.71-6.71-6.71s-6.71,3-6.71,6.71c0,2.73,1.63,5.08,3.98,6.13l-2.82,6.86
			c-8.82-3.57-18.26-5.61-28.01-5.96l0.31-9.4c0.07,0,0.14,0.01,0.21,0.01c3.7,0,6.71-3,6.71-6.71s-3-6.71-6.71-6.71
			s-6.71,3-6.71,6.71c0,3.38,2.5,6.17,5.75,6.64l-0.31,9.44c-0.77-0.02-1.54-0.03-2.31-0.03c-9.38,0-18.52,1.55-27.13,4.54
			l-2.7-7.67c2.44-1,4.16-3.4,4.16-6.2c0-3.7-3-6.71-6.71-6.71s-6.71,3-6.71,6.71s3,6.71,6.71,6.71c0.64,0,1.26-0.09,1.85-0.26
			l2.7,7.67c-10.44,3.73-20.08,9.56-28.4,17.3l-4.9-5.23c1.1-1.19,1.77-2.79,1.77-4.53c0-3.7-3-6.71-6.71-6.71s-6.71,3-6.71,6.71
			c0,3.7,3,6.71,6.71,6.71c1.69,0,3.23-0.62,4.41-1.65l4.89,5.22c-0.56,0.53-1.11,1.07-1.66,1.61
			c-6.91,6.92-12.45,14.84-16.48,23.44l-6.23-2.88c0.23-0.67,0.35-1.39,0.35-2.14c0-3.7-3-6.71-6.71-6.71s-6.71,3-6.71,6.71
			s3,6.71,6.71,6.71c2.69,0,5.01-1.59,6.08-3.88l6.19,2.86c-4.44,9.73-6.96,20.31-7.36,31.26l-7.99-0.26
			c-0.1-3.62-3.06-6.52-6.7-6.52c-3.7,0-6.71,3-6.71,6.71c0,3.7,3,6.71,6.71,6.71c3.52,0,6.4-2.71,6.68-6.15l7.99,0.26
			c-0.02,0.77-0.03,1.54-0.03,2.31c0,9.78,1.69,19.29,4.92,28.22l-6.56,2.42c-1.03-2.38-3.4-4.04-6.16-4.04c-3.7,0-6.71,3-6.71,6.71
			s3,6.71,6.71,6.71s6.71-3,6.71-6.71c0-0.68-0.1-1.34-0.29-1.96l6.56-2.42c3.74,10.03,9.44,19.29,16.9,27.32l-5.13,4.81
			c-1.2-1.15-2.83-1.86-4.63-1.86c-3.7,0-6.71,3-6.71,6.71c0,3.7,3,6.71,6.71,6.71s6.71-3,6.71-6.71c0-1.64-0.59-3.14-1.57-4.31
			l5.13-4.81c0.53,0.56,1.07,1.11,1.61,1.66c5.24,5.24,11.05,9.68,17.3,13.28l-40.44,74.53h-7.26v2.13h-3.55v4.23h184.76v-4.23
			h-3.55v-2.13h-7.26L1029,234.34c5.39-3.1,10.45-6.83,15.1-11.16l6.55,6.99c-1.41,1.23-2.3,3.04-2.3,5.05c0,3.7,3,6.71,6.71,6.71
			s6.71-3,6.71-6.71s-3-6.71-6.71-6.71c-1.42,0-2.74,0.44-3.82,1.2l-6.6-7.04c0.56-0.53,1.11-1.07,1.66-1.61
			c6.92-6.91,12.45-14.84,16.48-23.44l7.3,3.37c-0.13,0.53-0.2,1.08-0.2,1.64c0,3.7,3,6.71,6.71,6.71s6.71-3,6.71-6.71
			c0-3.7-3-6.71-6.71-6.71c-2.87,0-5.32,1.81-6.28,4.35l-7.21-3.33c4.44-9.73,6.96-20.31,7.36-31.26l7.86,0.26
			c0.1,3.62,3.06,6.52,6.7,6.52c3.7,0,6.71-3,6.71-6.71S1088.71,159.06,1085.01,159.06z M1068.27,162.63c0,0.75-0.01,1.49-0.03,2.24
			l-23.14-0.75c0.01-0.49,0.02-0.99,0.02-1.49c0-6.82-1.2-13.36-3.4-19.43l21.76-8.01C1066.63,143.87,1068.27,153.12,1068.27,162.63
			z M1043.99,164.08l-51.61-1.68c-0.02-0.34-0.07-0.66-0.16-0.98l48.46-17.84c2.15,5.95,3.33,12.36,3.33,19.05
			C1044,163.12,1044,163.6,1043.99,164.08z M931.75,161.18l51.61,1.68c0.02,0.34,0.07,0.66,0.16,0.98l-48.46,17.84
			c-2.15-5.95-3.33-12.36-3.33-19.05C931.74,162.15,931.74,161.66,931.75,161.18z M991.4,159.83l37.66-35.29
			c4.89,5.28,8.77,11.5,11.35,18.35l-48.46,17.84C991.81,160.41,991.62,160.11,991.4,159.83z M990.89,159.29
			c-0.29-0.26-0.62-0.49-0.97-0.67l19.62-47.77c7.23,3.04,13.7,7.54,19.02,13.15L990.89,159.29z M989.23,158.33
			c-0.27-0.09-0.55-0.15-0.84-0.18l1.68-51.61c6.62,0.26,12.94,1.66,18.78,4.02L989.23,158.33z M987.64,158.13
			c-0.32,0.02-0.62,0.06-0.92,0.14l-17.17-48.7c5.74-1.99,11.9-3.07,18.31-3.07c0.49,0,0.97,0.01,1.45,0.02L987.64,158.13z
			 M986.02,158.52c-0.34,0.15-0.66,0.35-0.95,0.58l-35.29-37.66c5.47-5.06,11.94-9.05,19.08-11.62L986.02,158.52z M984.53,159.61
			c-0.22,0.24-0.42,0.51-0.58,0.8l-46.88-21.64c2.99-6.35,7.14-12.05,12.17-16.82L984.53,159.61z M983.63,161.09
			c-0.12,0.33-0.2,0.67-0.24,1.03l-51.61-1.68c0.29-7.46,2.04-14.55,4.97-20.99L983.63,161.09z M983.78,164.53
			c0.12,0.26,0.27,0.51,0.43,0.74l-0.31,0.57l-37.23,34.89c-4.89-5.28-8.77-11.5-11.35-18.35L983.78,164.53z M982.78,167.91
			L959.41,211c-4.52-2.67-8.63-5.95-12.22-9.73L982.78,167.91z M985.32,166.35c0.16,0.11,0.32,0.21,0.5,0.29l-19.62,47.77
			c-1.89-0.79-3.73-1.69-5.5-2.68L985.32,166.35z M986.51,166.93c0.27,0.09,0.55,0.15,0.84,0.18l-1.68,51.61
			c-6.62-0.26-12.94-1.66-18.78-4.02L986.51,166.93z M987.87,218.77c-0.49,0-0.97-0.01-1.45-0.02l1.68-51.61
			c0.32-0.02,0.62-0.06,0.92-0.14l17.17,48.7C1000.44,217.68,994.28,218.77,987.87,218.77z M989.71,166.75
			c0.25-0.11,0.48-0.24,0.7-0.39l24.62,45.39c-2.6,1.45-5.33,2.69-8.16,3.71L989.71,166.75z M993.86,169.57l32.1,34.26
			c-2.94,2.72-6.16,5.12-9.63,7.17L993.86,169.57z M992.45,166.98l-0.93-1.71c0.1-0.13,0.19-0.27,0.27-0.42l46.88,21.64
			c-2.99,6.35-7.14,12.05-12.17,16.82L992.45,166.98z M992.11,164.18c0.12-0.33,0.2-0.67,0.24-1.03l51.61,1.68
			c-0.29,7.46-2.04,14.55-4.97,20.99L992.11,164.18z M965.78,215.45l-8.81,21.46c-2.69-1.12-5.31-2.38-7.86-3.79l11.06-20.39
			C961.98,213.73,963.85,214.64,965.78,215.45z M966.47,215.73c5.96,2.41,12.42,3.85,19.17,4.11l-0.75,23.14
			c-9.47-0.34-18.66-2.32-27.23-5.79L966.47,215.73z M986.38,219.86c0.49,0.01,0.99,0.02,1.49,0.02c6.54,0,12.82-1.1,18.68-3.13
			l7.71,21.87c-8.37,2.9-17.26,4.41-26.39,4.41c-0.75,0-1.49-0.01-2.24-0.03L986.38,219.86z M1007.25,216.5
			c2.89-1.04,5.67-2.31,8.32-3.78l11.06,20.39c-3.75,2.07-7.65,3.83-11.68,5.26L1007.25,216.5z M1063.23,134.49l-21.76,8.01
			c-2.63-6.99-6.6-13.34-11.59-18.72l16.92-15.85C1054.05,115.73,1059.59,124.74,1063.23,134.49z M1044.72,105.78
			c0.53,0.53,1.05,1.06,1.56,1.61l-16.91,15.85c-5.43-5.72-12.03-10.32-19.41-13.42l8.81-21.46
			C1028.36,92.35,1037.16,98.22,1044.72,105.78z M1018.08,88.08l-8.81,21.46c-5.96-2.41-12.42-3.85-19.17-4.11l0.75-23.14
			C1000.33,82.63,1009.51,84.6,1018.08,88.08z M987.87,82.23c0.75,0,1.49,0.01,2.24,0.03l-0.75,23.14
			c-0.49-0.01-0.99-0.02-1.49-0.02c-6.54,0-12.82,1.1-18.68,3.13l-7.71-21.87C969.86,83.74,978.75,82.23,987.87,82.23z
			 M960.78,86.89l7.71,21.87c-7.29,2.63-13.89,6.7-19.47,11.86l-15.85-16.92C941.25,96.19,950.63,90.51,960.78,86.89z
			 M931.02,105.78c0.53-0.53,1.06-1.05,1.61-1.56l15.85,16.91c-5.13,4.88-9.36,10.69-12.42,17.17l-21.06-9.72
			C918.91,120.21,924.29,112.5,931.02,105.78z M914.68,129.25l21.06,9.72c-2.99,6.57-4.78,13.81-5.07,21.42l-23.14-0.75
			C907.91,149,910.36,138.71,914.68,129.25z M907.47,162.63c0-0.75,0.01-1.49,0.03-2.24l23.14,0.75c-0.01,0.49-0.02,0.99-0.02,1.49
			c0,6.82,1.2,13.36,3.4,19.43l-21.76,8.01C909.11,181.39,907.47,172.14,907.47,162.63z M912.51,190.77l21.76-8.01
			c2.63,6.99,6.6,13.34,11.59,18.72l-16.92,15.85C921.69,209.53,916.14,200.52,912.51,190.77z M931.02,219.48
			c-0.53-0.53-1.05-1.06-1.56-1.61l16.91-15.85c3.67,3.87,7.88,7.22,12.5,9.95l-11.07,20.4
			C941.74,228.88,936.1,224.57,931.02,219.48z M1067.74,308.88H908l40.04-73.8c2.62,1.45,5.32,2.75,8.08,3.9l-2.82,6.88
			c-0.64-0.2-1.32-0.31-2.03-0.31c-3.7,0-6.71,3-6.71,6.71c0,3.7,3,6.71,6.71,6.71s6.71-3,6.71-6.71c0-2.73-1.64-5.08-3.98-6.13
			l2.82-6.86c8.82,3.57,18.26,5.61,28.01,5.96l-0.23,7.03c-3.63,0.08-6.55,3.05-6.55,6.7c0,3.7,3,6.71,6.71,6.71s6.71-3,6.71-6.71
			c0-3.51-2.69-6.38-6.12-6.68l0.23-7.03c0.77,0.02,1.54,0.03,2.31,0.03c9.38,0,18.52-1.55,27.13-4.54l2.41,6.84
			c-2.28,1.07-3.86,3.39-3.86,6.07c0,3.7,3,6.71,6.71,6.71c3.7,0,6.71-3,6.71-6.71c0-3.7-3-6.71-6.71-6.71
			c-0.75,0-1.48,0.13-2.15,0.35l-2.4-6.81c4.14-1.48,8.15-3.28,12-5.41L1067.74,308.88z M1027.93,232.38l-11.07-20.4
			c3.55-2.09,6.85-4.56,9.86-7.34l15.85,16.91C1038.07,225.75,1033.16,229.37,1027.93,232.38z M1044.72,219.48
			c-0.53,0.53-1.06,1.05-1.61,1.56l-15.85-16.91c5.13-4.88,9.36-10.69,12.42-17.17l21.06,9.72
			C1056.83,205.05,1051.45,212.76,1044.72,219.48z M1061.06,196.01l-21.06-9.72c3-6.57,4.78-13.81,5.07-21.42l23.14,0.75
			C1067.83,176.26,1065.38,186.55,1061.06,196.01z"/>
		<rect x="1101.2" y="215.45" class="st0" width="86.18" height="126.27"/>
		<rect x="1174.76" y="264.54" class="st0" width="86.18" height="76.46"/>
		<rect x="840.56" y="253.31" class="st0" width="48.34" height="64.17"/>
		<rect x="1144.28" y="95.37" class="st0" width="60.95" height="246.34"/>
		<polygon class="st0" points="1305.6,341.72 1225.21,341.72 1225.21,197.87 1286.16,197.87 		"/>
		<rect x="1270.4" y="308.88" class="st0" width="70.41" height="32.84"/>
		<rect x="1189.47" y="43.91" class="st0" width="2.1" height="66.94"/>
		<rect x="1196.57" y="58.27" class="st0" width="2.1" height="66.94"/>
		<rect x="1183.04" y="67.51" class="st0" width="2.1" height="66.94"/>
		<rect x="1228.36" y="186.24" class="st0" width="28.77" height="22.66"/>
		<rect x="1231.51" y="178.16" class="st0" width="22.46" height="12.74"/>
		<rect x="1268.56" y="192.88" class="st0" width="5.52" height="9.15"/>
		<rect x="1276.03" y="184.53" class="st0" width="7.88" height="17.5"/>
	</g>
	<g>
		<rect x="487.51" y="140.23" class="st1" width="2.4" height="13.3"/>
		<rect x="495.79" y="140.23" class="st1" width="2.4" height="13.3"/>
		<rect x="504.07" y="140.23" class="st1" width="2.4" height="13.3"/>
		<rect x="512.35" y="140.23" class="st1" width="2.4" height="13.3"/>
		<rect x="520.62" y="140.23" class="st1" width="2.4" height="13.3"/>
		<rect x="528.9" y="140.23" class="st1" width="2.4" height="13.3"/>
		<rect x="537.18" y="140.23" class="st1" width="2.4" height="13.3"/>
		<rect x="545.46" y="140.23" class="st1" width="2.4" height="13.3"/>
		<rect x="553.74" y="140.23" class="st1" width="2.4" height="13.3"/>
		<rect x="562.02" y="140.23" class="st1" width="2.4" height="13.3"/>
		<rect x="570.3" y="140.23" class="st1" width="2.4" height="13.3"/>
		<rect x="487.51" y="158.75" class="st1" width="2.4" height="13.3"/>
		<rect x="495.79" y="158.75" class="st1" width="2.4" height="13.3"/>
		<rect x="504.07" y="158.75" class="st1" width="2.4" height="13.3"/>
		<rect x="512.35" y="158.75" class="st1" width="2.4" height="13.3"/>
		<rect x="520.62" y="158.75" class="st1" width="2.4" height="13.3"/>
		<rect x="528.9" y="158.75" class="st1" width="2.4" height="13.3"/>
		<rect x="537.18" y="158.75" class="st1" width="2.4" height="13.3"/>
		<rect x="545.46" y="158.75" class="st1" width="2.4" height="13.3"/>
		<rect x="553.74" y="158.75" class="st1" width="2.4" height="13.3"/>
		<rect x="562.02" y="158.75" class="st1" width="2.4" height="13.3"/>
		<rect x="570.3" y="158.75" class="st1" width="2.4" height="13.3"/>
		<rect x="487.51" y="177.26" class="st1" width="2.4" height="13.3"/>
		<rect x="495.79" y="177.26" class="st1" width="2.4" height="13.3"/>
		<rect x="504.07" y="177.26" class="st1" width="2.4" height="13.3"/>
		<rect x="512.35" y="177.26" class="st1" width="2.4" height="13.3"/>
		<rect x="520.62" y="177.26" class="st1" width="2.4" height="13.3"/>
		<rect x="528.9" y="177.26" class="st1" width="2.4" height="13.3"/>
		<rect x="537.18" y="177.26" class="st1" width="2.4" height="13.3"/>
		<rect x="545.46" y="177.26" class="st1" width="2.4" height="13.3"/>
		<rect x="553.74" y="177.26" class="st1" width="2.4" height="13.3"/>
		<rect x="562.02" y="177.26" class="st1" width="2.4" height="13.3"/>
		<rect x="570.3" y="177.26" class="st1" width="2.4" height="13.3"/>
		<rect x="512.35" y="195.77" class="st1" width="2.4" height="13.3"/>
		<rect x="520.62" y="195.77" class="st1" width="2.4" height="13.3"/>
		<rect x="528.9" y="195.77" class="st1" width="2.4" height="13.3"/>
		<rect x="537.18" y="195.77" class="st1" width="2.4" height="13.3"/>
		<rect x="545.46" y="195.77" class="st1" width="2.4" height="13.3"/>
		<rect x="553.74" y="195.77" class="st1" width="2.4" height="13.3"/>
		<rect x="562.02" y="195.77" class="st1" width="2.4" height="13.3"/>
		<rect x="570.3" y="195.77" class="st1" width="2.4" height="13.3"/>
		<rect x="520.62" y="215.31" class="st1" width="2.4" height="13.3"/>
		<rect x="528.9" y="215.31" class="st1" width="2.4" height="13.3"/>
		<rect x="537.18" y="215.31" class="st1" width="2.4" height="13.3"/>
		<rect x="545.46" y="215.31" class="st1" width="2.4" height="13.3"/>
		<rect x="553.74" y="215.31" class="st1" width="2.4" height="13.3"/>
		<rect x="562.02" y="215.31" class="st1" width="2.4" height="13.3"/>
		<rect x="570.3" y="215.31" class="st1" width="2.4" height="13.3"/>
	</g>
	<g>
		<rect x="802.12" y="188.63" class="st1" width="4.65" height="17.91"/>
		<rect x="816.35" y="188.63" class="st1" width="4.65" height="17.91"/>
		<rect x="829.76" y="188.63" class="st1" width="4.65" height="17.91"/>
	</g>
</g>
</svg>
