<?xml version="1.0" encoding="utf-8"?>
<!-- Generator: Adobe Illustrator 23.0.1, SVG Export Plug-In . SVG Version: 6.00 Build 0)  -->
<svg version="1.1" id="Layer_1" xmlns="http://www.w3.org/2000/svg" xmlns:xlink="http://www.w3.org/1999/xlink" x="0px" y="0px"
	 viewBox="0 0 1419.97 367.78" style="enable-background:new 0 0 1419.97 367.78;" xml:space="preserve">
<style type="text/css">
	.st0{fill:#6354C8;}
	.st1{opacity:0.29;fill:#6354C8;}
	.st2{opacity:0.52;}
	.st3{fill:#FFFFFF;}
	.st4{opacity:0.33;fill:#FFFFFF;}
</style>
<g>
	<g>
		<g>
			<g>
				<rect x="858.18" y="22.07" class="st0" width="73.07" height="235.54"/>
				<rect x="852.73" y="23.46" class="st0" width="83.99" height="2.39"/>
				<rect x="855" y="56.55" class="st0" width="79.45" height="2.38"/>
				<rect x="855" y="88.59" class="st0" width="79.45" height="2.38"/>
				<rect x="855" y="120.63" class="st0" width="79.45" height="2.38"/>
				<rect x="855" y="152.67" class="st0" width="79.45" height="2.38"/>
				<rect x="855" y="184.72" class="st0" width="79.45" height="2.38"/>
				<rect x="855" y="216.76" class="st0" width="79.45" height="2.38"/>
				<rect x="849.95" y="16.96" class="st0" width="89.55" height="6.51"/>
				<rect x="864.76" y="33.59" class="st1" width="7.59" height="18.82"/>
				<rect x="881.74" y="33.59" class="st0" width="7.59" height="18.82"/>
				<rect x="898.73" y="33.59" class="st0" width="7.59" height="18.82"/>
				<rect x="915.71" y="33.59" class="st0" width="7.59" height="18.82"/>
				<rect x="864.76" y="64.35" class="st0" width="7.59" height="18.82"/>
				<rect x="881.74" y="64.35" class="st1" width="7.59" height="18.82"/>
				<rect x="898.73" y="64.35" class="st0" width="7.59" height="18.82"/>
				<rect x="915.71" y="64.35" class="st0" width="7.59" height="18.82"/>
				<rect x="864.76" y="96.39" class="st0" width="7.59" height="18.82"/>
				<rect x="881.74" y="96.39" class="st0" width="7.59" height="18.82"/>
				<rect x="898.73" y="96.39" class="st0" width="7.59" height="18.82"/>
				<rect x="915.71" y="96.39" class="st1" width="7.59" height="18.82"/>
				<rect x="864.76" y="128.44" class="st0" width="7.59" height="18.82"/>
				<rect x="881.74" y="128.44" class="st1" width="7.59" height="18.82"/>
				<rect x="898.73" y="128.44" class="st1" width="7.59" height="18.82"/>
				<rect x="915.71" y="128.44" class="st0" width="7.59" height="18.82"/>
				<rect x="864.76" y="160.48" class="st1" width="7.59" height="18.82"/>
				<rect x="881.74" y="160.48" class="st0" width="7.59" height="18.82"/>
				<rect x="898.73" y="160.48" class="st0" width="7.59" height="18.82"/>
				<rect x="915.71" y="160.48" class="st0" width="7.59" height="18.82"/>
				<rect x="864.76" y="192.52" class="st0" width="7.59" height="18.82"/>
				<rect x="881.74" y="192.52" class="st0" width="7.59" height="18.82"/>
				<rect x="898.73" y="192.52" class="st1" width="7.59" height="18.82"/>
				<rect x="915.71" y="192.52" class="st0" width="7.59" height="18.82"/>
				<rect x="864.76" y="224.56" class="st0" width="7.59" height="18.82"/>
				<rect x="881.74" y="224.56" class="st1" width="7.59" height="18.82"/>
				<rect x="898.73" y="224.56" class="st0" width="7.59" height="18.82"/>
				<rect x="915.71" y="224.56" class="st1" width="7.59" height="18.82"/>
				<rect x="862.8" y="7.98" class="st0" width="24.85" height="12.23"/>
				<rect x="861.11" y="7.63" class="st0" width="28.23" height="2.09"/>
			</g>
			<g>
				<polygon class="st0" points="753.45,257.61 656.11,257.61 656.11,33.81 753.45,10 				"/>
				<rect x="651.83" y="29.87" class="st0" width="8.55" height="227.73"/>
				<rect x="676.17" y="23.46" class="st0" width="8.55" height="234.15"/>
				<rect x="700.5" y="16.79" class="st0" width="8.55" height="240.82"/>
				<rect x="724.84" y="11.36" class="st0" width="8.55" height="246.25"/>
				<rect x="749.17" y="5.58" class="st0" width="8.55" height="252.02"/>
				<rect x="662.6" y="48.99" class="st1" width="11.35" height="17.29"/>
				<rect x="686.94" y="48.99" class="st1" width="11.35" height="17.29"/>
				<rect x="711.27" y="48.99" class="st0" width="11.35" height="17.29"/>
				<rect x="735.61" y="48.99" class="st1" width="11.35" height="17.29"/>
				<rect x="662.6" y="79.1" class="st0" width="11.35" height="17.29"/>
				<rect x="686.94" y="79.1" class="st0" width="11.35" height="17.29"/>
				<rect x="711.27" y="79.1" class="st1" width="11.35" height="17.29"/>
				<rect x="735.61" y="79.1" class="st1" width="11.35" height="17.29"/>
				<rect x="662.6" y="109.22" class="st1" width="11.35" height="17.29"/>
				<rect x="686.94" y="109.22" class="st1" width="11.35" height="17.29"/>
				<rect x="711.27" y="109.22" class="st1" width="11.35" height="17.29"/>
				<rect x="735.61" y="109.22" class="st0" width="11.35" height="17.29"/>
				<rect x="662.6" y="139.33" class="st1" width="11.35" height="17.29"/>
				<rect x="686.94" y="139.33" class="st0" width="11.35" height="17.29"/>
				<rect x="711.27" y="139.33" class="st1" width="11.35" height="17.29"/>
				<rect x="735.61" y="139.33" class="st1" width="11.35" height="17.29"/>
				<rect x="662.6" y="169.45" class="st1" width="11.35" height="17.29"/>
				<rect x="686.94" y="169.45" class="st1" width="11.35" height="17.29"/>
				<rect x="711.27" y="169.45" class="st0" width="11.35" height="17.29"/>
				<rect x="735.61" y="169.45" class="st1" width="11.35" height="17.29"/>
				<rect x="662.6" y="199.56" class="st0" width="11.35" height="17.29"/>
				<rect x="686.94" y="199.56" class="st0" width="11.35" height="17.29"/>
				<rect x="711.27" y="199.56" class="st1" width="11.35" height="17.29"/>
				<rect x="735.61" y="199.56" class="st1" width="11.35" height="17.29"/>
				<rect x="662.6" y="229.68" class="st1" width="11.35" height="17.29"/>
				<rect x="686.94" y="229.68" class="st0" width="11.35" height="17.29"/>
				<rect x="711.27" y="229.68" class="st1" width="11.35" height="17.29"/>
				<rect x="735.61" y="229.68" class="st0" width="11.35" height="17.29"/>
			</g>
			<polygon class="st0" points="378.43,44.53 378.43,46.86 376.12,46.86 376.12,53.48 416.84,53.48 416.84,257.61 350.01,257.61 
				350.01,64.13 350.01,53.48 350.01,46.86 347.58,46.86 347.58,44.53 			"/>
			<rect x="492.29" y="137.25" class="st0" width="57.25" height="120.35"/>
			<g>
				<rect x="242.77" y="109.67" class="st0" width="46.54" height="147.94"/>
				<rect x="280.09" y="140.49" class="st0" width="50.71" height="117.12"/>
				<rect x="259.51" y="103.73" class="st0" width="20.58" height="17.7"/>
				<rect x="283.57" y="138.56" class="st0" width="54.06" height="4.33"/>
			</g>
			<rect x="325.35" y="190.72" class="st0" width="56.86" height="66.88"/>
			<rect x="141.59" y="136.32" class="st0" width="46.25" height="121.29"/>
			<rect x="101.45" y="196.76" class="st0" width="60.85" height="60.85"/>
			<rect x="34.46" y="186.82" class="st0" width="38.06" height="70.79"/>
			<rect x="65.13" y="235.43" class="st0" width="89.95" height="22.17"/>
			<rect y="228.27" class="st0" width="46.1" height="29.34"/>
			<rect x="187.84" y="212.84" class="st0" width="71.67" height="44.76"/>
			<rect x="398.08" y="238.32" class="st0" width="111.64" height="19.28"/>
			<rect x="596.01" y="238.32" class="st0" width="111.64" height="19.28"/>
			<polygon class="st0" points="505.37,181.71 462.94,181.71 444.99,247.97 505.37,247.97 			"/>
			<rect x="524.98" y="85.31" class="st0" width="1.18" height="73.5"/>
			<rect x="530.89" y="110.18" class="st0" width="1.58" height="43.37"/>
			<rect x="522.45" y="117.86" class="st0" width="21.47" height="21.47"/>
			<rect x="518.82" y="116.19" class="st0" width="28.43" height="1.92"/>
			<rect x="539.13" y="195.53" class="st0" width="69.37" height="62.08"/>
			<rect x="595.23" y="127.19" class="st0" width="44.57" height="119.78"/>
			<rect x="769.29" y="149.71" class="st0" width="71.2" height="107.9"/>
			<rect x="746.96" y="217.85" class="st0" width="81.18" height="39.76"/>
			<rect x="836.55" y="243.38" class="st0" width="52.79" height="14.23"/>
			<rect x="917.86" y="217.85" class="st0" width="85.83" height="39.76"/>
			<g>
				
					<rect x="952.05" y="113.76" transform="matrix(-1 -1.224647e-16 1.224647e-16 -1 2010.9021 371.368)" class="st0" width="106.8" height="143.85"/>
				
					<rect x="949.29" y="108.24" transform="matrix(-1 -1.224647e-16 1.224647e-16 -1 2014.374 222.0032)" class="st0" width="115.79" height="5.52"/>
				
					<rect x="1007.19" y="93.27" transform="matrix(-1 -1.224647e-16 1.224647e-16 -1 2061.3096 215.6975)" class="st0" width="46.94" height="29.16"/>
				
					<rect x="983.97" y="93.27" transform="matrix(-1 -1.224647e-16 1.224647e-16 -1 1975.827 204.2686)" class="st0" width="7.88" height="17.73"/>
				
					<rect x="967.42" y="93.27" transform="matrix(-1 -1.224647e-16 1.224647e-16 -1 1943.5107 204.2686)" class="st0" width="8.67" height="17.73"/>
			</g>
			<g>
				
					<rect x="1132.27" y="47.53" transform="matrix(-1 -1.224647e-16 1.224647e-16 -1 2349.0828 305.1331)" class="st0" width="84.54" height="210.08"/>
				
					<rect x="1129.87" y="43.91" transform="matrix(-1 -1.224647e-16 1.224647e-16 -1 2349.0828 93.7641)" class="st0" width="89.34" height="5.94"/>
				
					<rect x="1135.11" y="36.31" transform="matrix(-1 -1.224647e-16 1.224647e-16 -1 2349.0828 100.8481)" class="st0" width="78.86" height="28.22"/>
				
					<rect x="1176.71" y="24.76" transform="matrix(-1 -1.224647e-16 1.224647e-16 -1 2384.6409 80.3655)" class="st0" width="31.23" height="30.84"/>
				<polygon class="st0" points="1189.86,33.46 1207.93,33.46 1207.93,17.22 1194.97,17.22 				"/>
				
					<rect x="1198.9" y="3.75" transform="matrix(-1 -1.224647e-16 1.224647e-16 -1 2399.5481 43.6548)" class="st0" width="1.75" height="36.16"/>
				<path class="st0" d="M1198.2,1.87c0,1.04,0.7,1.87,1.57,1.87c0.87,0,1.57-0.84,1.57-1.87c0-1.04-0.7-1.87-1.57-1.87
					C1198.91,0,1198.2,0.84,1198.2,1.87z"/>
			</g>
			<rect x="1205.24" y="170.88" class="st0" width="37.83" height="86.73"/>
			<rect x="1097.47" y="128.6" class="st0" width="43.15" height="129.01"/>
			<polygon class="st0" points="1119.06,257.61 1058.28,257.61 1058.28,188.61 1109.58,211.34 			"/>
			<rect x="1230.65" y="220.13" class="st0" width="92.82" height="37.47"/>
			<rect x="1289.18" y="108.01" class="st0" width="53.92" height="149.6"/>
			<rect x="1330.49" y="229.68" class="st0" width="89.48" height="27.93"/>
			<rect x="1286.42" y="105.27" class="st0" width="59.14" height="4.9"/>
			<rect x="1334.69" y="84.17" class="st0" width="1.18" height="30.15"/>
			<rect x="1326.81" y="87.98" class="st0" width="1.18" height="24.18"/>
			<polygon class="st0" points="1363.07,164.37 1339.03,164.37 1339.03,232.91 1373.31,232.91 			"/>
		</g>
		<g class="st2">
			<rect x="247.57" y="117.16" class="st3" width="3.52" height="3.52"/>
			<rect x="254.65" y="117.16" class="st3" width="3.52" height="3.52"/>
			<rect x="247.57" y="125.43" class="st3" width="3.52" height="3.52"/>
			<rect x="254.65" y="125.43" class="st3" width="3.52" height="3.52"/>
			<rect x="247.57" y="133.43" class="st3" width="3.52" height="3.52"/>
			<rect x="262.51" y="117.16" class="st3" width="3.52" height="3.52"/>
		</g>
		<g>
			<rect x="665.44" y="44.37" class="st4" width="5.68" height="14.4"/>
			<rect x="665.44" y="71.9" class="st4" width="5.68" height="14.4"/>
			<rect x="665.44" y="99.44" class="st4" width="5.68" height="14.4"/>
			<rect x="665.44" y="126.97" class="st4" width="5.68" height="14.4"/>
			<rect x="665.44" y="152.93" class="st4" width="5.68" height="14.4"/>
			<rect x="665.44" y="180.47" class="st4" width="5.68" height="14.4"/>
			<rect x="689.77" y="44.37" class="st4" width="5.68" height="14.4"/>
			<rect x="689.77" y="71.9" class="st4" width="5.68" height="14.4"/>
			<rect x="689.77" y="99.44" class="st4" width="5.68" height="14.4"/>
			<rect x="689.77" y="126.97" class="st4" width="5.68" height="14.4"/>
			<rect x="689.77" y="152.93" class="st4" width="5.68" height="14.4"/>
			<rect x="689.77" y="180.47" class="st4" width="5.68" height="14.4"/>
			<rect x="714.11" y="44.37" class="st4" width="5.68" height="14.4"/>
			<rect x="714.11" y="71.9" class="st4" width="5.68" height="14.4"/>
			<rect x="714.11" y="99.44" class="st4" width="5.68" height="14.4"/>
			<rect x="714.11" y="126.97" class="st4" width="5.68" height="14.4"/>
			<rect x="714.11" y="152.93" class="st4" width="5.68" height="14.4"/>
			<rect x="714.11" y="180.47" class="st4" width="5.68" height="14.4"/>
			<rect x="738.44" y="44.37" class="st4" width="5.68" height="14.4"/>
			<rect x="738.44" y="71.9" class="st4" width="5.68" height="14.4"/>
			<rect x="738.44" y="99.44" class="st4" width="5.68" height="14.4"/>
			<rect x="738.44" y="126.97" class="st4" width="5.68" height="14.4"/>
			<rect x="738.44" y="152.93" class="st4" width="5.68" height="14.4"/>
			<rect x="738.44" y="180.47" class="st4" width="5.68" height="14.4"/>
		</g>
		<g>
			<rect x="1140.62" y="63.48" class="st4" width="3.53" height="10.07"/>
			<rect x="1151.69" y="63.48" class="st4" width="3.53" height="10.07"/>
			<rect x="1140.62" y="63.48" class="st4" width="3.53" height="10.07"/>
			<rect x="1151.69" y="63.48" class="st4" width="3.53" height="10.07"/>
			<rect x="1162.15" y="63.48" class="st4" width="3.53" height="10.07"/>
			<rect x="1173.22" y="63.48" class="st4" width="3.53" height="10.07"/>
			<rect x="1140.62" y="81.54" class="st4" width="3.53" height="10.07"/>
			<rect x="1151.69" y="81.54" class="st4" width="3.53" height="10.07"/>
			<rect x="1140.62" y="81.54" class="st4" width="3.53" height="10.07"/>
			<rect x="1151.69" y="81.54" class="st4" width="3.53" height="10.07"/>
			<rect x="1162.15" y="81.54" class="st4" width="3.53" height="10.07"/>
			<rect x="1173.22" y="81.54" class="st4" width="3.53" height="10.07"/>
			<rect x="1140.62" y="100.77" class="st4" width="3.53" height="10.07"/>
			<rect x="1151.69" y="100.77" class="st4" width="3.53" height="10.07"/>
			<rect x="1140.62" y="100.77" class="st4" width="3.53" height="10.07"/>
			<rect x="1151.69" y="100.77" class="st4" width="3.53" height="10.07"/>
			<rect x="1162.15" y="100.77" class="st4" width="3.53" height="10.07"/>
			<rect x="1173.22" y="100.77" class="st4" width="3.53" height="10.07"/>
			<rect x="1185.32" y="63.48" class="st4" width="3.53" height="10.07"/>
			<rect x="1185.32" y="81.54" class="st4" width="3.53" height="10.07"/>
			<rect x="1196.4" y="63.48" class="st4" width="3.53" height="10.07"/>
		</g>
		<g>
			<rect x="864.76" y="33.59" class="st4" width="3.8" height="15.7"/>
			<rect x="883.64" y="33.59" class="st4" width="3.8" height="15.7"/>
			<rect x="902.52" y="33.59" class="st4" width="3.8" height="15.7"/>
			<rect x="921.4" y="33.59" class="st4" width="3.8" height="15.7"/>
			<rect x="864.76" y="65.91" class="st4" width="3.8" height="15.7"/>
			<rect x="883.64" y="65.91" class="st4" width="3.8" height="15.7"/>
			<rect x="902.52" y="65.91" class="st4" width="3.8" height="15.7"/>
			<rect x="921.4" y="65.91" class="st4" width="3.8" height="15.7"/>
			<rect x="864.76" y="99.03" class="st4" width="3.8" height="15.7"/>
			<rect x="883.64" y="99.03" class="st4" width="3.8" height="15.7"/>
			<rect x="902.52" y="99.03" class="st4" width="3.8" height="15.7"/>
			<rect x="921.4" y="99.03" class="st4" width="3.8" height="15.7"/>
			<rect x="864.76" y="132.16" class="st4" width="3.8" height="15.7"/>
			<rect x="883.64" y="132.16" class="st4" width="3.8" height="15.7"/>
			<rect x="902.52" y="132.16" class="st4" width="3.8" height="15.7"/>
			<rect x="921.4" y="132.16" class="st4" width="3.8" height="15.7"/>
			<rect x="864.76" y="162.25" class="st4" width="3.8" height="15.7"/>
			<rect x="883.64" y="162.25" class="st4" width="3.8" height="15.7"/>
			<rect x="902.52" y="162.25" class="st4" width="3.8" height="15.7"/>
			<rect x="864.76" y="195.81" class="st4" width="3.8" height="15.7"/>
			<rect x="883.64" y="195.81" class="st4" width="3.8" height="15.7"/>
			<rect x="902.52" y="195.81" class="st4" width="3.8" height="15.7"/>
			<rect x="921.4" y="162.25" class="st4" width="3.8" height="15.7"/>
		</g>
		<g>
			<rect x="1293.96" y="116.61" class="st4" width="3.88" height="9.01"/>
			<rect x="1293.96" y="131.16" class="st4" width="3.88" height="9.01"/>
			<rect x="1303.9" y="116.61" class="st4" width="3.88" height="9.01"/>
		</g>
	</g>
	<rect y="243.27" class="st0" width="1419.97" height="124.52"/>
</g>
</svg>
