<?xml version="1.0" encoding="utf-8"?>
<!-- Generator: Adobe Illustrator 23.0.1, SVG Export Plug-In . SVG Version: 6.00 Build 0)  -->
<svg version="1.1" id="Layer_1" xmlns="http://www.w3.org/2000/svg" xmlns:xlink="http://www.w3.org/1999/xlink" x="0px" y="0px"
	 viewBox="0 0 1317.23 448.83" style="enable-background:new 0 0 1317.23 448.83;" xml:space="preserve">
<style type="text/css">
	.st0{fill:#EDD987;}
	.st1{opacity:0.29;fill:#EDD987;}
	.st2{opacity:0.5;fill:#FFFFFF;}
	.st3{opacity:0.4;fill:#FFFFFF;}
</style>
<g>
	<g>
		<g>
			<rect x="322.72" y="149.65" class="st0" width="62.65" height="249.38"/>
			<rect x="332.95" y="131.78" class="st0" width="42.18" height="104.8"/>
			<rect x="342.34" y="120.43" class="st0" width="23.4" height="58.13"/>
			<polygon class="st0" points="362.01,150.3 346.07,150.3 346.07,110.69 351.82,110.69 357.52,110.69 362.01,110.69 			"/>
			<g>
				<polygon class="st0" points="352.99,133.05 351.26,133.05 351.26,93.44 351.89,93.44 352.5,93.44 352.99,93.44 				"/>
				<polygon class="st0" points="356.82,119.36 355.09,119.36 355.09,79.75 355.71,79.75 356.33,79.75 356.82,79.75 				"/>
			</g>
			<rect x="321.04" y="149.02" class="st0" width="65.99" height="2.66"/>
			<rect x="331.41" y="130.5" class="st0" width="45.26" height="2.56"/>
			<rect x="340.64" y="119.36" class="st0" width="26.08" height="1.96"/>
			<rect x="336.83" y="136.03" class="st1" width="1.96" height="10.98"/>
			<rect x="342.26" y="136.03" class="st1" width="1.96" height="10.98"/>
			<rect x="347.68" y="136.03" class="st1" width="1.96" height="10.98"/>
			<rect x="353.11" y="136.03" class="st1" width="1.96" height="10.98"/>
			<rect x="358.53" y="136.03" class="st1" width="1.96" height="10.98"/>
			<rect x="363.96" y="136.03" class="st1" width="1.96" height="10.98"/>
			<rect x="369.38" y="136.03" class="st1" width="1.96" height="10.98"/>
			<rect x="328.21" y="159.6" class="st0" width="4.74" height="13.03"/>
			<rect x="337.6" y="159.6" class="st1" width="4.74" height="13.03"/>
			<rect x="346.98" y="159.6" class="st0" width="4.74" height="13.03"/>
			<rect x="356.36" y="159.6" class="st0" width="4.74" height="13.03"/>
			<rect x="365.75" y="159.6" class="st0" width="4.74" height="13.03"/>
			<rect x="375.13" y="159.6" class="st0" width="4.74" height="13.03"/>
			<rect x="328.21" y="179.91" class="st0" width="4.74" height="13.03"/>
			<rect x="337.6" y="179.91" class="st0" width="4.74" height="13.03"/>
			<rect x="346.98" y="179.91" class="st0" width="4.74" height="13.03"/>
			<rect x="356.36" y="179.91" class="st1" width="4.74" height="13.03"/>
			<rect x="365.75" y="179.91" class="st0" width="4.74" height="13.03"/>
			<rect x="375.13" y="179.91" class="st0" width="4.74" height="13.03"/>
			<rect x="328.21" y="200.21" class="st0" width="4.74" height="13.03"/>
			<rect x="337.6" y="200.21" class="st0" width="4.74" height="13.03"/>
			<rect x="346.98" y="200.21" class="st0" width="4.74" height="13.03"/>
			<rect x="356.36" y="200.21" class="st0" width="4.74" height="13.03"/>
			<rect x="365.75" y="200.21" class="st1" width="4.74" height="13.03"/>
			<rect x="375.13" y="200.21" class="st1" width="4.74" height="13.03"/>
			<rect x="328.21" y="220.52" class="st1" width="4.74" height="13.03"/>
			<rect x="337.6" y="220.52" class="st0" width="4.74" height="13.03"/>
			<rect x="346.98" y="220.52" class="st0" width="4.74" height="13.03"/>
			<rect x="356.36" y="220.52" class="st0" width="4.74" height="13.03"/>
			<rect x="365.75" y="220.52" class="st0" width="4.74" height="13.03"/>
			<rect x="375.13" y="220.52" class="st0" width="4.74" height="13.03"/>
			<rect x="328.21" y="240.83" class="st0" width="4.74" height="13.03"/>
			<rect x="337.6" y="240.83" class="st1" width="4.74" height="13.03"/>
			<rect x="346.98" y="240.83" class="st0" width="4.74" height="13.03"/>
			<rect x="356.36" y="240.83" class="st1" width="4.74" height="13.03"/>
			<rect x="365.75" y="240.83" class="st0" width="4.74" height="13.03"/>
			<rect x="375.13" y="240.83" class="st0" width="4.74" height="13.03"/>
			<rect x="328.21" y="261.14" class="st0" width="4.74" height="13.03"/>
			<rect x="337.6" y="261.14" class="st0" width="4.74" height="13.03"/>
			<rect x="346.98" y="261.14" class="st0" width="4.74" height="13.03"/>
			<rect x="356.36" y="261.14" class="st0" width="4.74" height="13.03"/>
			<rect x="365.75" y="261.14" class="st0" width="4.74" height="13.03"/>
			<rect x="375.13" y="261.14" class="st1" width="4.74" height="13.03"/>
			<rect x="328.21" y="281.44" class="st0" width="4.74" height="13.03"/>
			<rect x="337.6" y="281.44" class="st1" width="4.74" height="13.03"/>
			<rect x="346.98" y="281.44" class="st1" width="4.74" height="13.03"/>
			<rect x="356.36" y="281.44" class="st0" width="4.74" height="13.03"/>
			<rect x="365.75" y="281.44" class="st0" width="4.74" height="13.03"/>
			<rect x="375.13" y="281.44" class="st0" width="4.74" height="13.03"/>
			<rect x="328.21" y="301.75" class="st0" width="4.74" height="13.03"/>
			<rect x="337.6" y="301.75" class="st0" width="4.74" height="13.03"/>
			<rect x="346.98" y="301.75" class="st0" width="4.74" height="13.03"/>
			<rect x="356.36" y="301.75" class="st0" width="4.74" height="13.03"/>
			<rect x="365.75" y="301.75" class="st1" width="4.74" height="13.03"/>
			<rect x="375.13" y="301.75" class="st0" width="4.74" height="13.03"/>
			<rect x="328.21" y="322.06" class="st0" width="4.74" height="13.03"/>
			<rect x="337.6" y="322.06" class="st1" width="4.74" height="13.03"/>
			<rect x="346.98" y="322.06" class="st0" width="4.74" height="13.03"/>
			<rect x="356.36" y="322.06" class="st0" width="4.74" height="13.03"/>
			<rect x="365.75" y="322.06" class="st0" width="4.74" height="13.03"/>
			<rect x="375.13" y="322.06" class="st0" width="4.74" height="13.03"/>
			<rect x="328.21" y="342.37" class="st0" width="4.74" height="13.03"/>
			<rect x="337.6" y="342.37" class="st0" width="4.74" height="13.03"/>
			<rect x="346.98" y="342.37" class="st0" width="4.74" height="13.03"/>
			<rect x="356.36" y="342.37" class="st1" width="4.74" height="13.03"/>
			<rect x="365.75" y="342.37" class="st0" width="4.74" height="13.03"/>
			<rect x="375.13" y="342.37" class="st1" width="4.74" height="13.03"/>
			<rect x="328.21" y="362.67" class="st1" width="4.74" height="13.03"/>
			<rect x="337.6" y="362.67" class="st0" width="4.74" height="13.03"/>
			<rect x="346.98" y="362.67" class="st1" width="4.74" height="13.03"/>
			<rect x="356.36" y="362.67" class="st0" width="4.74" height="13.03"/>
			<rect x="365.75" y="362.67" class="st0" width="4.74" height="13.03"/>
			<rect x="375.13" y="362.67" class="st0" width="4.74" height="13.03"/>
		</g>
		<g>
			<rect x="140.76" y="159.14" class="st0" width="100.71" height="237.77"/>
			<rect x="137.9" y="155.53" class="st0" width="106.44" height="5.94"/>
			<rect x="144.14" y="147.93" class="st0" width="93.94" height="28.22"/>
			<rect x="151.33" y="136.38" class="st0" width="37.2" height="30.84"/>
			<polygon class="st0" points="172.86,145.07 151.33,145.07 151.33,128.84 166.77,128.84 			"/>
			<rect x="160.01" y="115.36" class="st0" width="2.09" height="36.16"/>
			<path class="st0" d="M162.93,113.49c0,1.04-0.84,1.87-1.87,1.87s-1.87-0.84-1.87-1.87c0-1.04,0.84-1.87,1.87-1.87
				S162.93,112.45,162.93,113.49z"/>
		</g>
		<polygon class="st0" points="1075.49,385.22 965.24,385.22 951.49,76.34 1075.49,102.08 		"/>
		<polygon class="st0" points="594.51,208.82 594.51,105.55 577.22,105.55 577.22,77.89 571.04,77.89 571.04,37.32 537.01,37.32 
			537.01,7.51 533.98,7.51 533.98,37.32 527.31,37.32 527.31,0 524.28,0 524.28,37.32 502.77,37.32 502.77,105.55 491.66,105.55 
			491.66,208.82 482.13,208.82 482.13,396.91 601.2,396.91 601.2,208.82 		"/>
	</g>
	<rect y="381.39" class="st0" width="1317.23" height="67.44"/>
	<g>
		<rect x="508.89" y="44.99" class="st2" width="4.72" height="12.6"/>
		<rect x="520.54" y="44.99" class="st2" width="4.72" height="12.6"/>
		<rect x="532.19" y="44.99" class="st2" width="4.72" height="12.6"/>
		<rect x="543.84" y="44.99" class="st2" width="4.72" height="12.6"/>
		<rect x="508.89" y="65.97" class="st2" width="4.72" height="12.6"/>
		<rect x="520.54" y="65.97" class="st2" width="4.72" height="12.6"/>
		<rect x="532.19" y="65.97" class="st2" width="4.72" height="12.6"/>
		<rect x="543.84" y="65.97" class="st2" width="4.72" height="12.6"/>
		<rect x="508.89" y="86.95" class="st2" width="4.72" height="12.6"/>
		<rect x="520.54" y="86.95" class="st2" width="4.72" height="12.6"/>
		<rect x="557.06" y="44.99" class="st2" width="4.72" height="12.6"/>
	</g>
	<g>
		<rect x="194.38" y="172.63" class="st3" width="3" height="11.55"/>
		<rect x="204.98" y="172.63" class="st3" width="3" height="11.55"/>
		<rect x="217.38" y="172.63" class="st3" width="3" height="11.55"/>
		<rect x="227.98" y="172.63" class="st3" width="3" height="11.55"/>
		<rect x="170.84" y="172.63" class="st3" width="3" height="11.55"/>
		<rect x="181.44" y="172.63" class="st3" width="3" height="11.55"/>
		<rect x="194.38" y="192.68" class="st3" width="3" height="11.55"/>
		<rect x="204.98" y="192.68" class="st3" width="3" height="11.55"/>
		<rect x="217.38" y="192.68" class="st3" width="3" height="11.55"/>
		<rect x="227.98" y="192.68" class="st3" width="3" height="11.55"/>
		<rect x="170.84" y="192.68" class="st3" width="3" height="11.55"/>
		<rect x="181.44" y="192.68" class="st3" width="3" height="11.55"/>
		<rect x="194.38" y="212.73" class="st3" width="3" height="11.55"/>
		<rect x="204.98" y="212.73" class="st3" width="3" height="11.55"/>
		<rect x="217.38" y="212.73" class="st3" width="3" height="11.55"/>
		<rect x="227.98" y="212.73" class="st3" width="3" height="11.55"/>
		<rect x="170.84" y="212.73" class="st3" width="3" height="11.55"/>
		<rect x="181.44" y="212.73" class="st3" width="3" height="11.55"/>
	</g>
</g>
</svg>
